<svg width="94" height="100" viewBox="0 0 94 100" fill="none" xmlns="http://www.w3.org/2000/svg">
<path d="M89.4 66.3C95.3 69.7 95.3 75.2 89.5 78.6L57.7 97C51.9 100.4 42.4 100.4 36.5 97L4.59999 78.6C-1.30001 75.2 -1.30001 69.7 4.49999 66.3L36.2 47.9C42 44.5 51.5 44.5 57.4 47.9L89.4 66.3Z" fill="#00357C" fill-opacity="0.4"/>
<path d="M93.8 63.1H0.199995V66.4C0.199995 68.6 1.69999 70.8 4.59999 72.5L36.5 90.9C42.4 94.3 51.9 94.3 57.7 90.9L89.4 72.5C92.3 70.8 93.8 68.6 93.8 66.4V63.1Z" fill="url(#paint0_linear_104_3)"/>
<path d="M89.4 56.9C95.3 60.3 95.3 65.8 89.5 69.2L57.7 87.7C51.9 91.1 42.4 91.1 36.5 87.7L4.59999 69.2C-1.30001 65.8 -1.30001 60.3 4.49999 56.9L36.2 38.5C42 35.1 51.5 35.1 57.4 38.5L89.4 56.9Z" fill="#F3F8FE"/>
<path d="M51.6866 41.9263C51.6909 40.4351 49.59 39.2203 46.9943 39.213C44.3986 39.2056 42.2909 40.4085 42.2866 41.8997C42.2824 43.3908 44.3833 44.6056 46.979 44.613C49.5747 44.6203 51.6824 43.4175 51.6866 41.9263Z" fill="#A6CEFC"/>
<path d="M43.1 39.2V41.7C43.1 42.3 43.5 42.9 44.3 43.3C45.8 44.2 48.3 44.2 49.9 43.3C50.7 42.9 51 42.3 51 41.7V39.2H43.1Z" fill="url(#paint1_linear_104_3)"/>
<path d="M49.1 38C50.3 38.7 50.3 39.8 49.1 40.4C47.9 41.1 46.1 41.1 44.9 40.4C43.7 39.7 43.7 38.6 44.9 38C46 37.3 47.9 37.3 49.1 38Z" fill="url(#paint2_linear_104_3)"/>
<path d="M49.9502 39.4578C49.9529 38.5189 48.6119 37.754 46.9551 37.7493C45.2982 37.7446 43.9529 38.5019 43.9502 39.4408C43.9476 40.3797 45.2886 41.1446 46.9454 41.1493C48.6023 41.154 49.9476 40.3967 49.9502 39.4578Z" fill="#0CFFFC"/>
<path d="M49.8 37.6C48.3 36.7 45.8 36.7 44.2 37.6C42.7 38.5 42.7 39.9 44.2 40.8C45.7 41.7 48.2 41.7 49.8 40.8C51.3 39.9 51.3 38.5 49.8 37.6ZM49.1 40.4C47.9 41.1 46.1 41.1 44.9 40.4C43.7 39.7 43.7 38.6 44.9 38C46.1 37.3 47.9 37.3 49.1 38C50.3 38.7 50.3 39.8 49.1 40.4Z" fill="#BCD0F1"/>
<path d="M50 29.7H44V39.2C44 39.7 44.3 40.1 44.9 40.5C46.1 41.2 48 41.2 49.1 40.5C49.7 40.2 50 39.7 50 39.3V29.7Z" fill="url(#paint3_linear_104_3)"/>
<path d="M87.4543 62.716C87.4586 61.2248 85.3577 60.01 82.762 60.0027C80.1662 59.9953 78.0585 61.1982 78.0543 62.6893C78.0501 64.1805 80.1509 65.3953 82.7467 65.4026C85.3424 65.41 87.4501 64.2071 87.4543 62.716Z" fill="#A6CEFC"/>
<path d="M78.9 60V62.5C78.9 63.1 79.3 63.7 80.1 64.1C81.6 65 84.1 65 85.7 64.1C86.5 63.7 86.8 63.1 86.8 62.5V60H78.9Z" fill="url(#paint4_linear_104_3)"/>
<path d="M84.9 58.8C86.1 59.5 86.1 60.6 84.9 61.2C83.7 61.9 81.9 61.9 80.7 61.2C79.5 60.5 79.5 59.4 80.7 58.8C81.8 58.1 83.7 58.1 84.9 58.8Z" fill="url(#paint5_linear_104_3)"/>
<path d="M85.8179 60.2478C85.8206 59.309 84.4796 58.544 82.8227 58.5393C81.1659 58.5346 79.8206 59.292 79.8179 60.2308C79.8153 61.1697 81.1562 61.9346 82.8131 61.9393C84.47 61.944 85.8153 61.1867 85.8179 60.2478Z" fill="#0CFFFC"/>
<path d="M85.5 58.4C84 57.5 81.5 57.5 79.9 58.4C78.4 59.3 78.4 60.7 79.9 61.6C81.4 62.5 83.9 62.5 85.5 61.6C87.1 60.8 87.1 59.3 85.5 58.4ZM84.9 61.3C83.7 62 81.9 62 80.7 61.3C79.5 60.6 79.5 59.5 80.7 58.9C81.9 58.2 83.7 58.2 84.9 58.9C86 59.5 86 60.6 84.9 61.3Z" fill="#BCD0F1"/>
<path d="M85.8 50.5H79.8V60C79.8 60.5 80.1 60.9 80.7 61.3C81.9 62 83.8 62 84.9 61.3C85.5 61 85.8 60.5 85.8 60.1V50.5Z" fill="url(#paint6_linear_104_3)"/>
<path d="M15.8968 62.7589C15.901 61.2677 13.8001 60.0529 11.2044 60.0455C8.60867 60.0382 6.50098 61.2411 6.49675 62.7322C6.49252 64.2234 8.59336 65.4382 11.1891 65.4455C13.7848 65.4529 15.8925 64.25 15.8968 62.7589Z" fill="#A6CEFC"/>
<path d="M7.29999 60V62.5C7.29999 63.1 7.7 63.7 8.5 64.1C10 65 12.5 65 14.1 64.1C14.9 63.7 15.2 63.1 15.2 62.5V60H7.29999Z" fill="url(#paint7_linear_104_3)"/>
<path d="M13.3 58.8C14.5 59.5 14.5 60.6 13.3 61.2C12.1 61.9 10.3 61.9 9.1 61.2C7.9 60.5 7.9 59.4 9.1 58.8C10.3 58.1 12.2 58.1 13.3 58.8Z" fill="url(#paint8_linear_104_3)"/>
<path d="M14.2604 60.2907C14.2631 59.3519 12.9221 58.5869 11.2653 58.5822C9.60841 58.5775 8.26311 59.3349 8.26045 60.2737C8.25779 61.2126 9.59878 61.9775 11.2556 61.9822C12.9125 61.9869 14.2578 61.2296 14.2604 60.2907Z" fill="#0CFFFC"/>
<path d="M14 58.4C12.5 57.5 9.99999 57.5 8.39999 58.4C6.89999 59.3 6.89999 60.7 8.39999 61.6C9.89999 62.5 12.4 62.5 14 61.6C15.5 60.8 15.5 59.3 14 58.4ZM13.3 61.3C12.1 62 10.3 62 9.1 61.3C7.9 60.6 7.9 59.5 9.1 58.9C10.3 58.2 12.1 58.2 13.3 58.9C14.5 59.5 14.5 60.6 13.3 61.3Z" fill="#BCD0F1"/>
<path d="M14.2 50.5H8.2V60C8.2 60.5 8.5 60.9 9.1 61.3C10.3 62 12.2 62 13.3 61.3C13.9 61 14.2 60.5 14.2 60.1V50.5Z" fill="url(#paint9_linear_104_3)"/>
<path d="M20.8 56.5V62.4C20.8 63.6 21.6 64.9 23.3 65.8L41.2 76.1C44.5 78 49.8 78 53.1 76.1L70.9 65.8C72.5 64.8 73.3 63.6 73.3 62.4V56.5H20.8Z" fill="url(#paint10_linear_104_3)"/>
<path d="M70.8 53.1C74.1 55 74.1 58.1 70.8 60L53 70.3C49.7 72.2 44.4 72.2 41.1 70.3L23.2 60C19.9 58.1 19.9 55 23.2 53.1L41 42.8C44.3 40.9 49.6 40.9 52.9 42.8L70.8 53.1Z" fill="#BCD0F1"/>
<path d="M46.9 41.3V41.8C49.1 41.8 51.1 42.3 52.6 43.2L70.5 53.5C71.9 54.3 72.7 55.4 72.7 56.5C72.7 57.6 71.9 58.7 70.5 59.5L52.8 69.9C51.3 70.8 49.3 71.3 47.1 71.3C44.9 71.3 42.9 70.8 41.4 69.9L23.5 59.5C22.1 58.7 21.3 57.6 21.3 56.5C21.3 55.4 22.1 54.3 23.5 53.5L41.3 43.2C42.8 42.3 44.8 41.8 47 41.8V41.3M46.9 41.3C44.7 41.3 42.6 41.8 41 42.7L23.2 53.1C19.9 55 19.9 58.1 23.2 60L41.1 70.3C42.7 71.3 44.9 71.7 47.1 71.7C49.3 71.7 51.4 71.2 53 70.3L70.8 60C74.1 58.1 74.1 55 70.8 53.1L52.9 42.8C51.2 41.8 49.1 41.3 46.9 41.3Z" fill="url(#paint11_linear_104_3)"/>
<path d="M20.8 32.2V51.9C20.8 53.1 21.6 54.4 23.3 55.3L41.2 65.6C44.5 67.5 49.8 67.5 53.1 65.6L70.9 55.3C72.5 54.3 73.3 53.1 73.3 51.9V32.2H20.8Z" fill="url(#paint12_linear_104_3)"/>
<path d="M70.8 28.8C74.1 30.7 74.1 33.8 70.8 35.7L53 46C49.7 47.9 44.4 47.9 41.1 46L23.2 35.6C19.9 33.7 19.9 30.6 23.2 28.7L41 18.4C44.3 16.5 49.6 16.5 52.9 18.4L70.8 28.8Z" fill="#BCD0F1"/>
<path d="M46.9 17V17.5C49.1 17.5 51.1 18 52.6 18.9L70.5 29.2C71.9 30 72.7 31.1 72.7 32.2C72.7 33.3 71.9 34.4 70.5 35.2L52.8 45.5C51.3 46.4 49.3 46.9 47.1 46.9C44.9 46.9 42.9 46.4 41.4 45.5L23.5 35.2C22.1 34.4 21.3 33.3 21.3 32.2C21.3 31.1 22.1 30 23.5 29.2L41.3 18.9C42.8 18 44.8 17.5 47 17.5V17M46.9 17C44.7 17 42.6 17.5 41 18.4L23.2 28.8C19.9 30.7 19.9 33.8 23.2 35.7L41.1 46C42.7 47 44.9 47.4 47.1 47.4C49.3 47.4 51.4 46.9 53 46L70.8 35.7C74.1 33.8 74.1 30.7 70.8 28.8L52.9 18.4C51.2 17.5 49.1 17 46.9 17Z" fill="url(#paint13_linear_104_3)"/>
<path d="M59.3 30.4C61 31.4 61 33 59.3 34L50.1 39.4C48.4 40.4 45.6 40.4 43.9 39.4L34.7 34C33 33 33 31.4 34.7 30.4L43.9 25C45.6 24 48.4 24 50.1 25L59.3 30.4Z" fill="url(#paint14_linear_104_3)"/>
<path d="M47 24.3C48.1 24.3 49.2 24.5 50.1 25L59.4 30.4C61.1 31.4 61.1 33 59.4 34L50.2 39.4C49.4 39.9 48.2 40.1 47.1 40.1C46 40.1 44.9 39.9 44 39.4L34.7 34C33 33 33 31.4 34.7 30.4L43.9 25C44.7 24.6 45.8 24.3 47 24.3ZM47 24.1C45.8 24.1 44.7 24.4 43.8 24.9L34.6 30.3C33.7 30.8 33.2 31.5 33.2 32.3C33.2 33.1 33.7 33.8 34.6 34.3L43.9 39.7C44.8 40.2 45.9 40.5 47.1 40.5C48.3 40.5 49.4 40.2 50.3 39.7L59.5 34.3C60.4 33.8 60.9 33.1 60.9 32.3C60.9 31.5 60.4 30.8 59.5 30.3L50.2 24.9C49.3 24.4 48.2 24.1 47 24.1Z" fill="url(#paint15_linear_104_3)"/>
<path d="M60.6 8.7C60.6 8.1 60.2 7.4 59.3 6.9L50 1.5C48.3 0.5 45.5 0.5 43.8 1.5L34.6 6.9C33.8 7.4 33.3 8 33.3 8.7V32.2C33.3 32.8 33.7 33.5 34.6 34L43.9 39.4C45.6 40.4 48.4 40.4 50.1 39.4L59.3 34C60.1 33.5 60.6 32.9 60.6 32.2V8.7Z" fill="url(#paint16_linear_104_3)"/>
<path d="M40.8 10.7H41C41.1 10.7 41.1 10.7 41.1 10.8V18C41.1 18 41.1 18.1 41 18.1H40.7C40.7 18.1 40.6 18.1 40.6 18V10.8C40.7 10.8 40.8 10.7 40.8 10.7Z" fill="url(#paint17_linear_104_3)"/>
<path d="M58.4 26.8H58.6C58.7 26.8 58.7 26.8 58.7 26.9V33.9C58.7 34 58.7 34 58.6 34H58.4C58.3 34 58.3 34 58.3 33.9V26.9L58.4 26.8Z" fill="url(#paint18_linear_104_3)"/>
<path d="M48 18.9C48.1657 18.9 48.3 18.7657 48.3 18.6C48.3 18.4343 48.1657 18.3 48 18.3C47.8343 18.3 47.7 18.4343 47.7 18.6C47.7 18.7657 47.8343 18.9 48 18.9Z" fill="#FBDB45"/>
<path d="M35.8 27.7C35.9657 27.7 36.1 27.5657 36.1 27.4C36.1 27.2343 35.9657 27.1 35.8 27.1C35.6343 27.1 35.5 27.2343 35.5 27.4C35.5 27.5657 35.6343 27.7 35.8 27.7Z" fill="white"/>
<path d="M47.8 31.3C47.9657 31.3 48.1 31.1657 48.1 31C48.1 30.8343 47.9657 30.7 47.8 30.7C47.6343 30.7 47.5 30.8343 47.5 31C47.5 31.1657 47.6343 31.3 47.8 31.3Z" fill="white"/>
<path d="M59.3 21.7C59.4657 21.7 59.6 21.5657 59.6 21.4C59.6 21.2343 59.4657 21.1 59.3 21.1C59.1343 21.1 59 21.2343 59 21.4C59 21.5657 59.1343 21.7 59.3 21.7Z" fill="white"/>
<path d="M49.5 22.6H49.7C49.8 22.6 49.8 22.7 49.8 22.7V30.7C49.8 30.8 49.7 30.8 49.7 30.8H49.5C49.4 30.8 49.4 30.7 49.4 30.7V22.7C49.3 22.7 49.4 22.6 49.5 22.6Z" fill="url(#paint19_linear_104_3)"/>
<path d="M57.2 11.9L57.1 24.7L49.2 20.1V7.3L57.2 11.9Z" fill="white"/>
<path d="M57.2 11.9L57.9 11.5V24.3L57.1 24.7L57.2 11.9Z" fill="#CFD5EA"/>
<path d="M49.2 7.3L49.9 6.9L57.9 11.5L57.2 11.9L49.2 7.3Z" fill="#E6EBF4"/>
<path d="M54.4 12.8C54.5 12.9 54.6 13.1 54.6 13.2C54.6 13.4 54.5 13.4 54.4 13.3L50.2 10.9C50.1 10.8 50 10.6 50 10.5C50 10.3 50.1 10.3 50.2 10.4L54.4 12.8Z" fill="#9199B5"/>
<path d="M51.8 12.9C51.9 13 52 13.2 52 13.3C52 13.5 51.9 13.5 51.8 13.4L50.2 12.5C50.1 12.4 50 12.2 50 12.1C50 11.9 50.1 11.9 50.2 12L51.8 12.9Z" fill="#9199B5"/>
<path d="M55.8 15.2C55.9 15.3 56 15.5 56 15.6C56 15.8 55.9 15.8 55.8 15.7L52.6 14C52.5 13.9 52.4 13.7 52.4 13.6C52.4 13.4 52.5 13.4 52.6 13.4L55.8 15.2Z" fill="#9199B5"/>
<path d="M55.8 17C55.9 17.1 56 17.3 56 17.4C56 17.6 55.9 17.6 55.8 17.5L51.5 15C51.4 14.9 51.3 14.7 51.3 14.6C51.3 14.4 51.4 14.4 51.5 14.5L55.8 17Z" fill="#9199B5"/>
<path d="M55.8 13.6C55.9 13.7 56 13.9 56 14C56 14.2 55.9 14.2 55.8 14.1L55.3 13.8C55.2 13.7 55.1 13.5 55.1 13.4C55.1 13.2 55.2 13.2 55.3 13.3L55.8 13.6Z" fill="#9199B5"/>
<path d="M45.7 18.2L45.6 27.1L36.2 21.6V12.8L45.7 18.2Z" fill="white"/>
<path d="M45.7 18.2L46.4 17.8L46.3 26.6L45.6 27.1L45.7 18.2Z" fill="#CFD5EA"/>
<path d="M36.2 12.8L36.9 12.4L46.4 17.8L45.7 18.2L36.2 12.8Z" fill="#E6EBF4"/>
<path d="M41.2 18.7C41.1 18.7 40.9 18.7 40.8 18.8C40.6 18.9 40.5 19 40.3 19.2C40.2 19.3 40.1 19.5 40 19.6C39.8 19.9 39.7 20.1 39.4 20.3C39.3 20.4 39.2 20.5 39.1 20.5C39.1 20.5 39.1 20.5 39 20.5C39 20.4 39 20.4 38.9 20.3C39 20.3 39 20.1 38.9 20C38.8 19.9 38.8 19.8 38.7 19.8L38.6 19.7C38.5 19.7 38.5 19.7 38.4 19.7C38.3 19.7 38.3 19.7 38.2 19.7C38.1 19.7 38.1 19.8 38 19.8C37.9 19.9 37.8 20 37.7 20.1C37.7 20.2 37.6 20.2 37.6 20.3C37.6 20.4 37.5 20.4 37.5 20.5C37.4 20.5 37.3 20.5 37.2 20.4C37.1 20.3 37 20.4 36.9 20.5C36.8 20.6 36.9 20.7 37 20.8C37.1 20.9 37.3 20.9 37.5 20.9C37.6 20.9 37.6 20.9 37.7 20.9C37.7 20.9 37.8 20.9 37.8 20.8C37.9 20.8 37.9 20.7 38 20.6C38.1 20.5 38.1 20.4 38.2 20.4C38.3 20.3 38.3 20.3 38.4 20.2H38.5C38.5 20.2 38.6 20.2 38.6 20.3C38.7 20.4 38.7 20.5 38.8 20.6C38.8 20.7 38.9 20.9 38.9 21V21.1L39 21.2C39 21.2 39.1 21.2 39.2 21.2C39.3 21.2 39.3 21.2 39.4 21.2C39.5 21.1 39.6 21.1 39.7 21C39.9 20.9 40 20.7 40.1 20.5C40.2 20.3 40.4 20.1 40.5 20C40.6 19.8 40.7 19.7 40.9 19.5C41 19.4 41 19.4 41.1 19.3C41.2 19.3 41.2 19.2 41.3 19.2C41.4 19.2 41.4 19.2 41.5 19.2C41.6 19.3 41.8 19.4 41.8 19.6C42 19.9 42.1 20.3 42.1 20.6C42.2 20.9 42.3 21.3 42.4 21.6C42.4 21.7 42.5 21.8 42.6 21.9L42.7 22C42.7 22 42.8 22 42.9 22C43 22 43 22 43 22C43.1 22 43.1 21.9 43.2 21.8C43.3 21.7 43.3 21.6 43.4 21.5C43.5 21.3 43.6 21.1 43.6 20.9C43.6 20.8 43.7 20.7 43.7 20.7L43.8 20.6C43.9 20.5 44 20.5 44 20.5C44.1 20.5 44.2 20.4 44.2 20.3C44.2 20.2 44.1 20.1 44 20.1C43.8 20.1 43.7 20.2 43.6 20.3C43.5 20.3 43.5 20.4 43.4 20.5C43.3 20.6 43.2 20.8 43.2 20.9C43.1 21.1 43 21.3 42.9 21.5C42.9 21.5 42.9 21.6 42.8 21.6C42.7 21.5 42.7 21.4 42.7 21.3C42.6 21.1 42.6 20.9 42.5 20.7C42.4 20.1 42.2 19.6 42 19.4C41.9 19.3 41.8 19.2 41.7 19.1C41.5 18.8 41.4 18.7 41.2 18.7Z" fill="#E6EBF4"/>
<path d="M37 19.9C37.1 20 37.3 20 37.5 20C37.6 20 37.6 20 37.7 20C37.7 20 37.8 20 37.8 19.9C37.9 19.9 37.9 19.8 38 19.7C38.1 19.6 38.1 19.5 38.2 19.5C38.3 19.4 38.3 19.4 38.4 19.3H38.5L38.6 19.4C38.7 19.5 38.7 19.6 38.8 19.7C38.8 19.8 38.9 20 38.9 20.1V20.2L39 20.3C39 20.3 39.1 20.3 39.2 20.3C39.3 20.3 39.3 20.3 39.4 20.3C39.5 20.2 39.6 20.2 39.7 20.1C39.9 20 40 19.8 40.2 19.6C40.3 19.4 40.5 19.2 40.6 19C40.7 18.8 40.8 18.6 41 18.5C41.1 18.4 41.2 18.4 41.2 18.3C41.3 18.3 41.3 18.2 41.4 18.2C41.5 18.2 41.5 18.2 41.6 18.3C41.7 18.4 41.9 18.5 41.9 18.7C42.1 19 42.2 19.4 42.3 19.7C42.4 20 42.5 20.4 42.6 20.7C42.6 20.8 42.7 20.9 42.8 21L42.9 21.1C42.9 21.1 43 21.1 43.1 21.1C43.2 21.1 43.2 21.1 43.3 21.1C43.4 21.1 43.4 21 43.5 20.9C43.6 20.8 43.6 20.7 43.7 20.6C43.8 20.4 43.9 20.2 44 20C44 19.9 44.1 19.8 44.1 19.8L44.2 19.7C44.3 19.6 44.4 19.6 44.4 19.6C44.5 19.6 44.6 19.5 44.6 19.4C44.6 19.3 44.5 19.2 44.4 19.2C44.2 19.2 44.1 19.3 44 19.4C43.9 19.5 43.9 19.5 43.8 19.6C43.7 19.7 43.6 19.9 43.6 20C43.5 20.2 43.4 20.5 43.3 20.6C43.3 20.7 43.2 20.7 43.2 20.8V20.6C43.2 20.6 43.2 20.5 43.1 20.5C43 20.4 43 20.3 43 20.1C42.9 19.9 42.9 19.7 42.8 19.5C42.6 18.8 42.5 18.4 42.3 18.1C42.2 18 42.1 17.9 42 17.8C41.9 17.7 41.7 17.7 41.6 17.7C41.5 17.7 41.3 17.7 41.2 17.8C41 17.9 40.9 18 40.7 18.2C40.6 18.3 40.5 18.5 40.4 18.6C40.2 18.9 40 19.1 39.8 19.3C39.7 19.4 39.6 19.5 39.5 19.6C39.5 19.6 39.4 19.6 39.4 19.7V20L39.5 19.9V20L39.6 19.9L39.1 20H39.2C39.2 19.9 39.1 19.8 39.1 19.7C39 19.5 39 19.4 38.9 19.2C38.8 19.1 38.8 19 38.7 19L38.6 18.9C38.5 18.9 38.5 18.9 38.4 18.9C38.3 18.9 38.3 18.9 38.2 18.9C38.1 18.9 38.1 19 38 19C37.9 19.1 37.8 19.2 37.7 19.3C37.7 19.4 37.6 19.4 37.6 19.5C37.6 19.6 37.5 19.6 37.5 19.7C37.4 19.7 37.3 19.7 37.2 19.6C37.1 19.5 37 19.6 36.9 19.7C36.8 19.8 36.9 19.9 37 19.9Z" fill="url(#paint20_linear_104_3)"/>
<path d="M50.6 34.3L44.3 30.7V39.5C46 40.3 48.5 40.3 50.1 39.4L50.5 39.2L50.6 34.3Z" fill="white"/>
<path d="M51.3 38.7V33.9L50.6 34.3L50.5 39.1L51.3 38.7Z" fill="#CFD5EA"/>
<path d="M44.3 30.7L45 30.3L51.3 33.9L50.6 34.3L44.3 30.7Z" fill="#E6EBF4"/>
<path d="M48.5 35C48.6 35.1 48.7 35.2 48.7 35.3C48.7 35.4 48.6 35.5 48.5 35.4L45.1 33.4C45 33.3 44.9 33.2 44.9 33.1C44.9 33 45 32.9 45.1 33L48.5 35Z" fill="#9199B5"/>
<path d="M46.4 35.1C46.5 35.2 46.6 35.3 46.6 35.4C46.6 35.5 46.5 35.6 46.4 35.5L45.1 34.8C45 34.7 44.9 34.6 44.9 34.5C44.9 34.4 45 34.3 45.1 34.4L46.4 35.1Z" fill="#9199B5"/>
<path d="M49.6 37C49.7 37.1 49.8 37.2 49.8 37.3C49.8 37.4 49.7 37.5 49.6 37.4L47.1 36C47 35.9 46.9 35.8 46.9 35.7C46.9 35.6 47 35.5 47.1 35.6L49.6 37Z" fill="#9199B5"/>
<path d="M49.6 38.3C49.7 38.4 49.8 38.5 49.8 38.6C49.8 38.7 49.7 38.8 49.6 38.7L46.1 36.7C46 36.6 45.9 36.5 45.9 36.4C45.9 36.3 46 36.2 46.1 36.3L49.6 38.3Z" fill="#9199B5"/>
<path d="M49.6 35.6C49.7 35.7 49.8 35.8 49.8 35.9C49.8 36 49.7 36.1 49.6 36L49.2 35.8C49.1 35.7 49 35.6 49 35.5C49 35.4 49.1 35.3 49.2 35.4L49.6 35.6Z" fill="#9199B5"/>
<path d="M28 54L28.7 53.6C28.8 53.5 28.9 53.3 28.9 53.1C28.9 52.6 28.5 52 28.1 51.7C27.9 51.6 27.7 51.6 27.5 51.6L26.8 52L28 54Z" fill="url(#paint21_linear_104_3)"/>
<path d="M28.0326 53.947C28.3201 53.7821 28.3081 53.2213 28.0058 52.6944C27.7036 52.1674 27.2256 51.8739 26.9381 52.0387C26.6507 52.2036 26.6627 52.7644 26.965 53.2914C27.2672 53.8183 27.7452 54.1118 28.0326 53.947Z" fill="#2185F8"/>
<path d="M27.8336 53.5999C28.0253 53.49 28.0247 53.1291 27.8324 52.7938C27.64 52.4584 27.3288 52.2757 27.1371 52.3856C26.9455 52.4955 26.9461 52.8564 27.1384 53.1917C27.3308 53.5271 27.642 53.7098 27.8336 53.5999Z" fill="#0CFFFC"/>
<path d="M31.3 55.9L32 55.5C32.1 55.4 32.2 55.2 32.2 55C32.2 54.5 31.8 53.9 31.4 53.6C31.2 53.5 31 53.5 30.8 53.5L30.1 53.9L31.3 55.9Z" fill="url(#paint22_linear_104_3)"/>
<path d="M31.3409 55.8341C31.6283 55.6692 31.6163 55.1084 31.3141 54.5815C31.0119 54.0545 30.5338 53.761 30.2464 53.9258C29.959 54.0907 29.971 54.6515 30.2732 55.1785C30.5755 55.7054 31.0535 55.999 31.3409 55.8341Z" fill="#2185F8"/>
<path d="M31.1419 55.4871C31.3335 55.3772 31.333 55.0163 31.1406 54.681C30.9483 54.3456 30.637 54.1629 30.4454 54.2728C30.2538 54.3827 30.2544 54.7436 30.4467 55.079C30.639 55.4143 30.9503 55.597 31.1419 55.4871Z" fill="#FFE200"/>
<path d="M68.4 42.3C68.6 42.2 68.8 42.2 68.9 42.3C69 42.4 69.1 42.5 69.1 42.8V52.6C69.1 53 68.8 53.6 68.4 53.8L54.2 62C53.8 62.2 53.5 62 53.5 61.6V51.8C53.5 51.4 53.8 50.8 54.2 50.6L68.4 42.3Z" fill="#1964BA"/>
<path d="M69 42.6C69.4 42.4 69.7 42.6 69.7 43V52.8C69.7 53.2 69.4 53.8 69 54L54.8 62.2C54.4 62.4 54.1 62.2 54.1 61.8V52C54.1 51.6 54.4 51 54.8 50.8L69 42.6Z" fill="#C9D9F4"/>
<path d="M57.2 50.7C57.4 50.6 57.5 50.7 57.5 50.9C57.5 51.1 57.4 51.3 57.2 51.4C57 51.5 56.9 51.4 56.9 51.2C56.9 51 57 50.8 57.2 50.7Z" fill="white"/>
<path d="M63.4 49.4C63.5 49.3 63.6 49.4 63.6 49.5V55.7C63.6 55.8 63.5 55.9 63.4 56L55.6 60.5C55.5 60.6 55.4 60.5 55.4 60.4V54.2C55.4 54.1 55.5 54 55.6 53.9L63.4 49.4Z" fill="white"/>
<path d="M68.6 50.1C68.7 50 68.8 50.1 68.8 50.2V52.7C68.8 52.8 68.7 52.9 68.6 53L64.5 55.4C64.4 55.5 64.3 55.4 64.3 55.3V52.8C64.3 52.7 64.4 52.6 64.5 52.5L68.6 50.1Z" fill="white"/>
<path d="M68.6 46.4C68.7 46.3 68.8 46.4 68.8 46.5V49C68.8 49.1 68.7 49.2 68.6 49.3L64.5 51.7C64.4 51.8 64.3 51.7 64.3 51.6V49.1C64.3 49 64.4 48.9 64.5 48.8L68.6 46.4Z" fill="white"/>
<path d="M55.3 51.8C55.5 51.7 55.6 51.8 55.6 52C55.6 52.2 55.5 52.4 55.3 52.5C55.1 52.6 55 52.5 55 52.3C55 52.1 55.1 51.8 55.3 51.8Z" fill="white"/>
<path d="M56.2 51.2C56.4 51.1 56.5 51.2 56.5 51.4C56.5 51.6 56.4 51.8 56.2 51.9C56 52 55.9 51.9 55.9 51.7C55.9 51.5 56.1 51.3 56.2 51.2Z" fill="white"/>
<path d="M59.691 54.161L56.491 55.961H56.391C56.391 55.961 56.391 55.861 56.491 55.861L59.691 54.061H59.791C59.791 54.061 59.791 54.161 59.691 54.161Z" fill="#6491FB"/>
<path d="M61.591 53.061L60.191 53.861H60.091C60.091 53.861 60.091 53.761 60.191 53.761L61.591 52.961H61.691C61.691 53.061 61.691 53.061 61.591 53.061Z" fill="#FF9999"/>
<path d="M59.691 54.7209L57.991 55.7209H57.891C57.891 55.7209 57.891 55.621 57.991 55.621L59.691 54.621H59.791C59.791 54.621 59.791 54.6209 59.691 54.7209Z" fill="#FF9999"/>
<path d="M57.691 55.821L56.591 56.5209H56.491C56.491 56.5209 56.491 56.421 56.591 56.421L57.691 55.7209H57.791C57.691 55.8209 57.691 55.821 57.691 55.821Z" fill="#FF9999"/>
<path d="M61.591 53.621L60.191 54.421H60.091C60.091 54.421 60.091 54.321 60.191 54.321L61.591 53.5209H61.691C61.691 53.5209 61.691 53.521 61.591 53.621Z" fill="#A69CFB"/>
<path d="M58.591 53.862L56.591 55.062H56.491C56.491 55.062 56.491 54.962 56.591 54.962L58.591 53.762H58.691L58.591 53.862Z" fill="#6491FB"/>
<path d="M59.791 53.162L58.891 53.662H58.791C58.791 53.662 58.791 53.562 58.891 53.562L59.791 53.062H59.891C59.891 53.062 59.891 53.162 59.791 53.162Z" fill="#A69CFB"/>
<path d="M62.291 51.762L60.191 52.962H60.091C60.091 52.962 60.091 52.862 60.191 52.862L62.291 51.662H62.391L62.291 51.762Z" fill="#94F2B5"/>
<path d="M60.291 56.285L62.291 55.085L62.391 54.985C62.391 54.985 62.391 54.885 62.291 54.985L60.291 56.185C60.191 56.185 60.191 56.185 60.291 56.285C60.191 56.285 60.191 56.285 60.291 56.285Z" fill="#6491FB"/>
<path d="M58.991 56.985L59.891 56.485L59.991 56.385C59.991 56.385 59.991 56.285 59.891 56.385L58.991 56.885C58.991 56.885 58.991 56.885 58.991 56.985Z" fill="#94F2B5"/>
<path d="M56.591 58.485L58.691 57.285L58.791 57.185C58.791 57.185 58.791 57.085 58.691 57.185L56.591 58.385C56.491 58.285 56.491 58.385 56.591 58.485C56.491 58.485 56.491 58.485 56.591 58.485Z" fill="#FF9999"/>
<path d="M57.891 54.827L56.591 55.627H56.491C56.491 55.627 56.491 55.527 56.591 55.527L57.891 54.727H57.991C57.891 54.727 57.891 54.727 57.891 54.827Z" fill="#A69CFB"/>
<path d="M60.691 53.127L58.191 54.627H58.091C58.091 54.627 58.091 54.527 58.191 54.527L60.691 53.027H60.791C60.691 53.127 60.691 53.127 60.691 53.127Z" fill="#94F2B5"/>
<path d="M62.491 52.127L60.891 53.027H60.791C60.791 53.027 60.791 52.927 60.891 52.927L62.491 52.027H62.591C62.591 52.027 62.591 52.027 62.491 52.127Z" fill="#6491FB"/>
<path d="M61.191 56.0519L62.491 55.252H62.591C62.591 55.252 62.591 55.3519 62.491 55.3519L61.191 56.152H61.091C61.191 56.152 61.191 56.0519 61.191 56.0519Z" fill="#94F2B5"/>
<path d="M58.391 57.652L60.891 56.152H60.991C60.991 56.152 60.991 56.252 60.891 56.252L58.391 57.752H58.291C58.291 57.752 58.391 57.752 58.391 57.652Z" fill="#FFC99C"/>
<path d="M56.591 58.752L58.191 57.8519H58.291C58.291 57.8519 58.291 57.952 58.191 57.952L56.591 58.8519H56.491C56.491 58.8519 56.491 58.752 56.591 58.752Z" fill="#A69CFB"/>
<path d="M59.691 56.1039L56.491 57.9039H56.391C56.391 57.9039 56.391 57.804 56.491 57.804L59.691 56.004H59.791C59.791 56.004 59.791 56.1039 59.691 56.1039Z" fill="#FFC99C"/>
<path d="M61.591 55.004L60.191 55.804H60.091C60.091 55.804 60.091 55.704 60.191 55.704L61.591 54.9039H61.691C61.691 55.0039 61.691 55.004 61.591 55.004Z" fill="#FF9999"/>
<path d="M57.891 56.77L56.591 57.5699H56.491C56.491 57.5699 56.491 57.47 56.591 57.47L57.891 56.67H57.991C57.891 56.67 57.891 56.67 57.891 56.77Z" fill="#94F2B5"/>
<path d="M60.691 55.0699L58.191 56.5699H58.091C58.091 56.5699 58.091 56.47 58.191 56.47L60.691 54.97H60.791C60.691 55.07 60.691 55.0699 60.691 55.0699Z" fill="#6491FB"/>
<path d="M62.491 54.0699L60.891 54.97H60.791C60.791 54.97 60.791 54.8699 60.891 54.8699L62.491 53.97H62.591C62.591 53.97 62.591 53.9699 62.491 54.0699Z" fill="#94F2B5"/>
<path d="M57.591 56.373L56.491 56.973H56.391C56.391 56.973 56.391 56.873 56.491 56.873L57.591 56.273H57.691C57.691 56.273 57.691 56.373 57.591 56.373Z" fill="#A69CFB"/>
<path d="M59.891 55.073L57.791 56.273H57.691C57.691 56.273 57.691 56.173 57.791 56.173L59.891 54.973H59.991C59.991 54.973 59.991 54.973 59.891 55.073Z" fill="#FF9999"/>
<path d="M62.291 53.673L60.191 54.873H60.091C60.091 54.873 60.091 54.773 60.191 54.773L62.291 53.573H62.391C62.291 53.673 62.291 53.673 62.291 53.673Z" fill="#FFC99C"/>
<path d="M65.7 49.9H65.6C65.6 49.8 65.6 49.7 65.6 49.6C65.6 49.5 65.5 49.4 65.4 49.5C65.3 49.6 65.2 49.7 65.2 49.9C65.2 50 65.2 50.1 65.2 50.2L65.1 50.3C65 50.4 65 50.4 65 50.5V50.6C65.2 50.7 65.5 50.5 65.7 50.2C65.7 50 65.7 50 65.7 49.9ZM65.3 49.6C65.4 49.5 65.5 49.5 65.5 49.7C65.5 49.8 65.5 49.9 65.5 49.9C65.4 50 65.4 50.1 65.3 50C65.3 50 65.2 49.9 65.3 49.9C65.2 49.8 65.2 49.7 65.3 49.6ZM65.6 50C65.4 50.3 65.2 50.4 65 50.3V50.2L65.1 50.1C65.1 50.1 65.1 50.1 65.2 50.1C65.3 50.1 65.4 50.1 65.4 50C65.4 50 65.4 50 65.5 50H65.6Z" fill="url(#paint23_linear_104_3)"/>
<path d="M65.3 49.3C65 49.5 64.8 49.8 64.8 50.1C64.8 50.2 64.8 50.3 64.8 50.4C64.8 50.4 64.8 50.4 64.8 50.3C64.8 50.2 64.8 50.1 64.8 50.1C64.8 49.9 64.9 49.7 65.1 49.6C65.3 49.4 65.4 49.4 65.5 49.4C65.6 49.5 65.7 49.6 65.6 49.9V50C65.6 50 65.6 50 65.7 49.9C65.9 49.3 65.7 49 65.3 49.3Z" fill="url(#paint24_linear_104_3)"/>
<path d="M65.7 53.6H65.6C65.6 53.5 65.6 53.4 65.6 53.3C65.6 53.2 65.5 53.1 65.4 53.2C65.3 53.3 65.2 53.4 65.2 53.6C65.2 53.7 65.2 53.8 65.2 53.9L65.1 54C65 53.9 65 54 64.9 54.1V54.2C65.1 54.3 65.4 54.1 65.6 53.8C65.7 53.7 65.7 53.7 65.7 53.6ZM65.3 53.3C65.4 53.2 65.5 53.2 65.5 53.4C65.5 53.5 65.5 53.6 65.5 53.6C65.4 53.7 65.4 53.8 65.3 53.7C65.3 53.7 65.2 53.6 65.3 53.6C65.2 53.5 65.2 53.4 65.3 53.3ZM65.6 53.7C65.4 54 65.2 54.1 65 54V53.9L65.1 53.8C65.1 53.8 65.1 53.8 65.2 53.8C65.3 53.8 65.4 53.8 65.4 53.7C65.4 53.7 65.4 53.7 65.5 53.7H65.6Z" fill="url(#paint25_linear_104_3)"/>
<path d="M65.3 52.9C65 53.1 64.8 53.4 64.8 53.7C64.8 53.8 64.8 53.9 64.8 54C64.8 54 64.8 54 64.8 53.9C64.8 53.8 64.8 53.7 64.8 53.7C64.8 53.5 64.9 53.3 65.1 53.2C65.3 53 65.4 53 65.5 53C65.6 53.1 65.7 53.2 65.6 53.5V53.6C65.6 53.6 65.6 53.6 65.7 53.5C65.9 53 65.7 52.7 65.3 52.9Z" fill="url(#paint26_linear_104_3)"/>
<path d="M5.29999 19.9C5.29999 20.7 5.59999 21.3 5.99999 21.5L7.1 22.1C7.1 22.1 18.1 13.9 18.1 12.5C18.1 12.5 18.1 12 18 11.7C18.2 11.6 18.5 11.5 18.5 11.5C18.3 11.4 17.7 11 17.4 10.9C17 10.8 16.3 11 16.1 11.1C16.1 10.8 16 10.5 15.9 10.3L16.4 10.2L15.4 9.6C15 9.4 14.5 9.4 14 9.7C13.7 9.9 13.5 10.1 13.3 10.3C13.3 10.3 12.8 10 12.5 9.8C12.2 9.6 11.9 9.6 11.6 9.6C11.5 9.6 11.4 9.6 11.3 9.6C11.2 9.6 11.2 9.6 11.1 9.6C10.8 9.7 10.5 9.8 10.2 10C8.99999 10.7 7.89999 12.1 7.29999 13.8C6.89999 14.8 6.59999 16.1 6.69999 16.8C5.49999 18 5.29999 18.8 5.29999 19.9Z" fill="url(#paint27_linear_104_3)"/>
<path d="M6.39999 20.6C6.39999 22 7.29999 22.7 8.39999 22.1C8.39999 22.1 8.5 22.1 8.5 22L17.2 16.9C17.2 16.9 17.3 16.9 17.3 16.8C18.4 16.2 19.2 14.5 19.2 13.1C19.2 11.7 18.3 11 17.2 11.6C17.2 11.6 17.2 11.6 17.1 11.6C17 10.1 16.1 9.5 14.9 10.2C14.6 10.4 14.3 10.7 14 11C13.4 10.1 12.3 9.9 11.1 10.6C9.2 11.7 7.59999 14.7 7.69999 17.3C6.99999 18.2 6.39999 19.5 6.39999 20.6Z" fill="#F3F8FE"/>
<path d="M17.3 16.8C18.4 16.2 19.2 14.5 19.2 13.1C19.2 11.7 18.3 11 17.2 11.6C17.2 11.6 17.2 11.6 17.1 11.6C17 10.1 16.1 9.5 14.9 10.2C14.6 10.4 14.3 10.7 14 11C13.4 10.1 12.3 9.9 11.1 10.6L11 10.7L15.6 17.8L17.1 16.9C17.2 16.9 17.2 16.9 17.3 16.8Z" fill="url(#paint28_linear_104_3)"/>
<path d="M87.5 23.8C87.5 24.3 87.3 24.6 87.1 24.7L86.5 25.1C86.5 25.1 80 20.3 80 19.4C80 19.4 80 19.1 80.1 18.9C80 18.9 79.8 18.8 79.8 18.8C79.9 18.7 80.3 18.5 80.4 18.4C80.6 18.3 81.1 18.4 81.2 18.5C81.2 18.3 81.2 18.2 81.3 18H80.9L81.5 17.6C81.7 17.5 82 17.5 82.4 17.7C82.6 17.8 82.7 17.9 82.8 18.1C82.8 18.1 83.1 17.9 83.3 17.8C83.5 17.7 83.7 17.7 83.9 17.7C84 17.7 84 17.7 84.1 17.7H84.2C84.4 17.7 84.6 17.8 84.7 17.9C85.4 18.3 86.1 19.2 86.4 20.1C86.6 20.7 86.8 21.4 86.7 21.9C87.4 22.7 87.5 23.1 87.5 23.8Z" fill="url(#paint29_linear_104_3)"/>
<path d="M86.8 24.2C86.8 25 86.3 25.4 85.6 25.1C85.6 25.1 85.6 25.1 85.5 25.1L80.4 22.1C80.4 22.1 80.4 22.1 80.3 22.1C79.7 21.7 79.2 20.7 79.2 19.9C79.2 19.1 79.7 18.7 80.4 19C80.4 18.1 81 17.7 81.7 18.1C81.9 18.2 82.1 18.4 82.2 18.5C82.6 18 83.2 17.8 83.9 18.3C85 19 86 20.8 85.9 22.3C86.5 22.8 86.8 23.5 86.8 24.2Z" fill="#F3F8FE"/>
<path d="M80.4 22C79.8 21.6 79.3 20.6 79.3 19.8C79.3 19 79.8 18.6 80.5 18.9C80.5 18 81.1 17.6 81.8 18C82 18.1 82.2 18.3 82.3 18.4C82.7 17.9 83.3 17.7 84 18.2C84 18.2 84 18.2 84.1 18.3L81.4 22.5L80.4 22Z" fill="url(#paint30_linear_104_3)"/>
<path d="M51.6644 83.5486C51.6687 82.0575 49.5678 80.8427 46.9721 80.8353C44.3764 80.828 42.2687 82.0308 42.2644 83.522C42.2602 85.0132 44.361 86.228 46.9568 86.2353C49.5525 86.2427 51.6602 85.0398 51.6644 83.5486Z" fill="#A6CEFC"/>
<path d="M43.1 80.8V83.3C43.1 83.9 43.5 84.5 44.3 84.9C45.8 85.8 48.3 85.8 49.9 84.9C50.7 84.5 51 83.9 51 83.3V80.8H43.1Z" fill="url(#paint31_linear_104_3)"/>
<path d="M49.1 79.6C50.3 80.3 50.3 81.4 49.1 82C47.9 82.7 46.1 82.7 44.9 82C43.7 81.3 43.7 80.2 44.9 79.6C46 79 47.9 79 49.1 79.6Z" fill="url(#paint32_linear_104_3)"/>
<path d="M50.0281 81.0804C50.0308 80.1415 48.6898 79.3766 47.033 79.3719C45.3761 79.3672 44.0308 80.1245 44.0281 81.0634C44.0255 82.0023 45.3665 82.7672 47.0233 82.7719C48.6802 82.7766 50.0255 82.0193 50.0281 81.0804Z" fill="#0CFFFC"/>
<path d="M49.8 79.2C48.3 78.3 45.8 78.3 44.2 79.2C42.7 80.1 42.7 81.5 44.2 82.4C45.7 83.3 48.2 83.3 49.8 82.4C51.3 81.6 51.3 80.1 49.8 79.2ZM49.1 82.1C47.9 82.8 46.1 82.8 44.9 82.1C43.7 81.4 43.7 80.3 44.9 79.7C46.1 79 47.9 79 49.1 79.7C50.3 80.3 50.3 81.4 49.1 82.1Z" fill="#BCD0F1"/>
<path d="M50 71.4H44V80.9C44 81.4 44.3 81.8 44.9 82.2C46.1 82.9 48 82.9 49.1 82.2C49.7 81.9 50 81.4 50 81V71.4Z" fill="url(#paint33_linear_104_3)"/>
<defs>
<linearGradient id="paint0_linear_104_3" x1="0.1439" y1="50.1298" x2="93.8562" y2="50.1298" gradientUnits="userSpaceOnUse">
<stop stop-color="#92A6F1"/>
<stop offset="1" stop-color="white"/>
</linearGradient>
<linearGradient id="paint1_linear_104_3" x1="-0.145883" y1="49.6845" x2="92.9613" y2="49.6845" gradientUnits="userSpaceOnUse">
<stop offset="0.3375" stop-color="#97B5E1"/>
<stop offset="0.5932" stop-color="#E8F1FF"/>
</linearGradient>
<linearGradient id="paint2_linear_104_3" x1="0.53087" y1="50.8659" x2="93.4707" y2="50.8659" gradientUnits="userSpaceOnUse">
<stop stop-color="#103DB5"/>
<stop offset="0.6426" stop-color="#6BABFD"/>
</linearGradient>
<linearGradient id="paint3_linear_104_3" x1="47" y1="96.6362" x2="47" y2="1.64073" gradientUnits="userSpaceOnUse">
<stop stop-color="#0CFFFC" stop-opacity="0.6"/>
<stop offset="1" stop-color="white" stop-opacity="0"/>
</linearGradient>
<linearGradient id="paint4_linear_104_3" x1="-0.398451" y1="49.9141" x2="92.7087" y2="49.9141" gradientUnits="userSpaceOnUse">
<stop offset="0.3375" stop-color="#97B5E1"/>
<stop offset="0.5932" stop-color="#E8F1FF"/>
</linearGradient>
<linearGradient id="paint5_linear_104_3" x1="0.198323" y1="51.1867" x2="93.1381" y2="51.1867" gradientUnits="userSpaceOnUse">
<stop stop-color="#103DB5"/>
<stop offset="0.6426" stop-color="#6BABFD"/>
</linearGradient>
<linearGradient id="paint6_linear_104_3" x1="46.6674" y1="96.7339" x2="46.6674" y2="1.73843" gradientUnits="userSpaceOnUse">
<stop stop-color="#0CFFFC" stop-opacity="0.6"/>
<stop offset="1" stop-color="white" stop-opacity="0"/>
</linearGradient>
<linearGradient id="paint7_linear_104_3" x1="0.106684" y1="49.9141" x2="93.2139" y2="49.9141" gradientUnits="userSpaceOnUse">
<stop offset="0.3375" stop-color="#97B5E1"/>
<stop offset="0.5932" stop-color="#E8F1FF"/>
</linearGradient>
<linearGradient id="paint8_linear_104_3" x1="0.863417" y1="51.1867" x2="93.8032" y2="51.1867" gradientUnits="userSpaceOnUse">
<stop stop-color="#103DB5"/>
<stop offset="0.6426" stop-color="#6BABFD"/>
</linearGradient>
<linearGradient id="paint9_linear_104_3" x1="47.3325" y1="96.7339" x2="47.3325" y2="1.73843" gradientUnits="userSpaceOnUse">
<stop stop-color="#0CFFFC" stop-opacity="0.6"/>
<stop offset="1" stop-color="white" stop-opacity="0"/>
</linearGradient>
<linearGradient id="paint10_linear_104_3" x1="0.099786" y1="50.4357" x2="93.7221" y2="50.4357" gradientUnits="userSpaceOnUse">
<stop offset="0.3375" stop-color="#97B5E1"/>
<stop offset="0.5932" stop-color="#E8F1FF"/>
</linearGradient>
<linearGradient id="paint11_linear_104_3" x1="93.408" y1="57.9227" x2="0.0591406" y2="53.2749" gradientUnits="userSpaceOnUse">
<stop stop-color="white"/>
<stop offset="1" stop-color="#C9D9F4"/>
</linearGradient>
<linearGradient id="paint12_linear_104_3" x1="0.099786" y1="50.2269" x2="93.7221" y2="50.2269" gradientUnits="userSpaceOnUse">
<stop offset="0.3375" stop-color="#97B5E1"/>
<stop offset="0.5932" stop-color="#E8F1FF"/>
</linearGradient>
<linearGradient id="paint13_linear_104_3" x1="93.408" y1="57.8496" x2="0.0591449" y2="53.2018" gradientUnits="userSpaceOnUse">
<stop stop-color="white"/>
<stop offset="1" stop-color="#C9D9F4"/>
</linearGradient>
<linearGradient id="paint14_linear_104_3" x1="0.0778826" y1="50.186" x2="93.9228" y2="50.186" gradientUnits="userSpaceOnUse">
<stop stop-color="#103DB5"/>
<stop offset="0.6426" stop-color="#6BABFD"/>
</linearGradient>
<linearGradient id="paint15_linear_104_3" x1="93.6675" y1="49.5831" x2="-0.00498436" y2="49.5831" gradientUnits="userSpaceOnUse">
<stop stop-color="white"/>
<stop offset="1" stop-color="#4D9DF9"/>
</linearGradient>
<linearGradient id="paint16_linear_104_3" x1="47.1719" y1="99.3825" x2="47.1719" y2="0.839267" gradientUnits="userSpaceOnUse">
<stop stop-color="#2185F8" stop-opacity="0.4"/>
<stop offset="1" stop-color="white" stop-opacity="0"/>
</linearGradient>
<linearGradient id="paint17_linear_104_3" x1="61.4248" y1="11.6745" x2="61.4248" y2="91.862" gradientUnits="userSpaceOnUse">
<stop stop-color="#7AB4F4"/>
<stop offset="1" stop-color="#DFEDFA"/>
</linearGradient>
<linearGradient id="paint18_linear_104_3" x1="59.1944" y1="11.3083" x2="59.1944" y2="91.5003" gradientUnits="userSpaceOnUse">
<stop stop-color="white"/>
<stop offset="1" stop-color="white" stop-opacity="0"/>
</linearGradient>
<linearGradient id="paint19_linear_104_3" x1="47.0178" y1="11.6145" x2="47.0178" y2="92.0193" gradientUnits="userSpaceOnUse">
<stop stop-color="white"/>
<stop offset="1" stop-color="white" stop-opacity="0"/>
</linearGradient>
<linearGradient id="paint20_linear_104_3" x1="0.10904" y1="54.909" x2="91.0628" y2="54.909" gradientUnits="userSpaceOnUse">
<stop stop-color="#3282ED"/>
<stop offset="1" stop-color="#60A2F0"/>
</linearGradient>
<linearGradient id="paint21_linear_104_3" x1="84.0892" y1="83.9395" x2="40.2987" y2="1.75559" gradientUnits="userSpaceOnUse">
<stop stop-color="#103DB5"/>
<stop offset="0.6426" stop-color="#6BABFD"/>
</linearGradient>
<linearGradient id="paint22_linear_104_3" x1="83.1958" y1="83.0207" x2="39.4054" y2="0.83672" gradientUnits="userSpaceOnUse">
<stop stop-color="#103DB5"/>
<stop offset="0.6426" stop-color="#6BABFD"/>
</linearGradient>
<linearGradient id="paint23_linear_104_3" x1="-40.9932" y1="229.683" x2="52.401" y2="-24.4767" gradientUnits="userSpaceOnUse">
<stop stop-color="#FF8000"/>
<stop offset="1" stop-color="#FFD000"/>
</linearGradient>
<linearGradient id="paint24_linear_104_3" x1="-19.6056" y1="240.155" x2="62.5128" y2="4.58808" gradientUnits="userSpaceOnUse">
<stop stop-color="#FF8000"/>
<stop offset="1" stop-color="#FFD000"/>
</linearGradient>
<linearGradient id="paint25_linear_104_3" x1="-24.1393" y1="249.194" x2="95.5272" y2="-11.3465" gradientUnits="userSpaceOnUse">
<stop stop-color="#FF8000"/>
<stop offset="1" stop-color="#FFD000"/>
</linearGradient>
<linearGradient id="paint26_linear_104_3" x1="-19.6056" y1="253.582" x2="69.5364" y2="9.42713" gradientUnits="userSpaceOnUse">
<stop stop-color="#FF8000"/>
<stop offset="1" stop-color="#FFD000"/>
</linearGradient>
<linearGradient id="paint27_linear_104_3" x1="-16.2173" y1="85.6267" x2="67.7183" y2="27.2598" gradientUnits="userSpaceOnUse">
<stop stop-color="#97B5E1"/>
<stop offset="1" stop-color="#ECF1FA"/>
</linearGradient>
<linearGradient id="paint28_linear_104_3" x1="100.827" y1="78.5581" x2="-23.1563" y2="14.5196" gradientUnits="userSpaceOnUse">
<stop stop-color="white"/>
<stop offset="1" stop-color="#C9D9F4"/>
</linearGradient>
<linearGradient id="paint29_linear_104_3" x1="110.363" y1="85.8107" x2="26.7336" y2="26.1352" gradientUnits="userSpaceOnUse">
<stop stop-color="#97B5E1"/>
<stop offset="1" stop-color="#ECF1FA"/>
</linearGradient>
<linearGradient id="paint30_linear_104_3" x1="-7.37649" y1="79.7563" x2="117.441" y2="14.7845" gradientUnits="userSpaceOnUse">
<stop stop-color="white"/>
<stop offset="1" stop-color="#C9D9F4"/>
</linearGradient>
<linearGradient id="paint31_linear_104_3" x1="-0.145883" y1="50.1459" x2="92.9613" y2="50.1459" gradientUnits="userSpaceOnUse">
<stop offset="0.3375" stop-color="#97B5E1"/>
<stop offset="0.5932" stop-color="#E8F1FF"/>
</linearGradient>
<linearGradient id="paint32_linear_104_3" x1="0.53087" y1="50.4369" x2="93.4707" y2="50.4369" gradientUnits="userSpaceOnUse">
<stop stop-color="#103DB5"/>
<stop offset="0.6426" stop-color="#6BABFD"/>
</linearGradient>
<linearGradient id="paint33_linear_104_3" x1="47" y1="82.3133" x2="47" y2="71.4244" gradientUnits="userSpaceOnUse">
<stop stop-color="#0CFFFC" stop-opacity="0.6"/>
<stop offset="1" stop-color="white" stop-opacity="0"/>
</linearGradient>
</defs>
</svg>
