<svg width="100" height="100" viewBox="0 0 100 100" fill="none" xmlns="http://www.w3.org/2000/svg">
<g opacity="0.4">
<path d="M92.4 66.1C98.3 69.5 98.3 75 92.5 78.4L60.8 96.8C55 100.2 45.5 100.2 39.6 96.8L7.59999 78.4C1.69999 75 1.69999 69.5 7.49999 66.1L39.2 47.7C45 44.3 54.5 44.3 60.4 47.7L92.4 66.1Z" fill="#00357C" fill-opacity="0.4"/>
</g>
<path d="M96.8 62.9H3.19998V66.2C3.19998 68.4 4.69998 70.6 7.59998 72.3L39.5 90.7C45.4 94.1 54.9 94.1 60.7 90.7L92.4 72.3C95.3 70.6 96.8 68.4 96.8 66.2V62.9Z" fill="url(#paint0_linear_1_2630)"/>
<path d="M92.4 56.7C98.3 60.1 98.3 65.6 92.5 69L60.8 87.4C55 90.8 45.5 90.8 39.6 87.4L7.59999 69C1.69999 65.6 1.69999 60.1 7.49999 56.7L39.2 38.3C45 34.9 54.5 34.9 60.4 38.3L92.4 56.7Z" fill="#F3F8FE"/>
<path d="M81.2 51.1H18.8V63.3C18.8 64.8 19.8 66.3 21.8 67.4L43 79.7C46.9 82 53.3 82 57.2 79.7L78.4 67.4C80.3 66.3 81.3 64.8 81.3 63.3V51.1H81.2Z" fill="url(#paint1_linear_1_2630)"/>
<path d="M69.8 48.3C72.5 49.9 72.6 52.5 69.8 54L55 62.6C52.3 64.2 47.8 64.2 45.1 62.6L30.2 54C27.5 52.4 27.4 49.9 30.2 48.3L45 39.7C47.7 38.1 52.2 38.1 54.9 39.7L69.8 48.3Z" fill="url(#paint2_linear_1_2630)"/>
<path d="M83.5 46.3C88.1 49 88.2 53.3 83.6 56L58.5 70.6C53.9 73.3 46.4 73.3 41.7 70.6L16.5 56C11.9 53.3 11.8 49 16.5 46.3L41.6 31.7C46.2 29 53.7 29 58.4 31.7L83.5 46.3Z" stroke="#0CFFFC" stroke-width="0.5" stroke-miterlimit="10"/>
<path d="M69.8 50.3C72.5 51.9 72.6 54.5 69.8 56L55 64.6C52.3 66.2 47.8 66.2 45.1 64.6L30.2 56C27.5 54.4 27.4 51.9 30.2 50.3L45 41.7C47.7 40.1 52.2 40.1 54.9 41.7L69.8 50.3Z" fill="#0CFFFC"/>
<path d="M78.3 47.1L57 34.8C53.1 32.5 46.7 32.5 42.9 34.8L21.7 47.1C17.8 49.4 17.8 53 21.7 55.3L43 67.5C46.9 69.8 53.3 69.8 57.2 67.5L78.4 55.2C82.2 53 82.2 49.3 78.3 47.1ZM69.8 54L55 62.6C52.3 64.2 47.8 64.2 45.1 62.6L30.2 54C27.5 52.4 27.4 49.9 30.2 48.3L45 39.7C47.7 38.1 52.2 38.1 54.9 39.7L69.8 48.3C72.5 49.9 72.5 52.4 69.8 54Z" fill="#2185F8"/>
<path d="M49.9 33.1V33.6C52.5 33.6 54.9 34.2 56.7 35.2L78 47.5C79.7 48.5 80.7 49.8 80.7 51.2C80.7 52.6 79.8 53.9 78 54.8L56.8 67.1C55 68.2 52.6 68.7 50 68.7C47.4 68.7 45 68.1 43.2 67.1L22 54.8C20.3 53.8 19.3 52.5 19.3 51.1C19.3 49.7 20.2 48.4 22 47.4L43.2 35.1C45 34 47.4 33.5 50 33.5V33.1M49.9 33.1C47.3 33.1 44.8 33.7 42.8 34.8L21.6 47.1C17.7 49.4 17.7 53 21.6 55.3L43 67.5C45 68.6 47.5 69.2 50.1 69.2C52.7 69.2 55.2 68.6 57.2 67.5L78.4 55.2C82.3 52.9 82.3 49.3 78.3 47L57 34.8C55 33.6 52.5 33.1 49.9 33.1Z" fill="url(#paint3_linear_1_2630)"/>
<path d="M75.2 19.5L56.2 8.5C52.7 6.5 47.1 6.5 43.6 8.5L24.7 19.5C23 20.5 22.1 21.8 22.1 23.2L28.1 51.1C28.1 52.1 28.8 53.2 30.2 54L45.1 62.6C47.8 64.2 52.3 64.2 55 62.6L69.8 54C71.2 53.2 71.8 52.2 71.8 51.1L77.8 23.2C77.8 21.9 77 20.5 75.2 19.5Z" fill="url(#paint4_linear_1_2630)"/>
<path d="M31.8 40.7C31.9657 40.7 32.1 40.5657 32.1 40.4C32.1 40.2343 31.9657 40.1 31.8 40.1C31.6343 40.1 31.5 40.2343 31.5 40.4C31.5 40.5657 31.6343 40.7 31.8 40.7Z" fill="white"/>
<path d="M59.9 42.8C60.0657 42.8 60.2 42.6657 60.2 42.5C60.2 42.3343 60.0657 42.2 59.9 42.2C59.7343 42.2 59.6 42.3343 59.6 42.5C59.6 42.6657 59.7343 42.8 59.9 42.8Z" fill="white"/>
<path d="M66.1 39.3C66.2657 39.3 66.4 39.1657 66.4 39C66.4 38.8343 66.2657 38.7 66.1 38.7C65.9343 38.7 65.8 38.8343 65.8 39C65.8 39.1657 65.9343 39.3 66.1 39.3Z" fill="white"/>
<path d="M40.9 51.8C41.0657 51.8 41.2 51.6657 41.2 51.5C41.2 51.3343 41.0657 51.2 40.9 51.2C40.7343 51.2 40.6 51.3343 40.6 51.5C40.6 51.6657 40.7343 51.8 40.9 51.8Z" fill="white"/>
<path d="M60.8 29.4C60.9657 29.4 61.1 29.2657 61.1 29.1C61.1 28.9343 60.9657 28.8 60.8 28.8C60.6343 28.8 60.5 28.9343 60.5 29.1C60.5 29.2657 60.6343 29.4 60.8 29.4Z" fill="white"/>
<path d="M35.1 29.7C35.2657 29.7 35.4 29.5657 35.4 29.4C35.4 29.2343 35.2657 29.1 35.1 29.1C34.9343 29.1 34.8 29.2343 34.8 29.4C34.8 29.5657 34.9343 29.7 35.1 29.7Z" fill="white"/>
<path d="M44.5 23.1C44.6657 23.1 44.8 22.9657 44.8 22.8C44.8 22.6343 44.6657 22.5 44.5 22.5C44.3343 22.5 44.2 22.6343 44.2 22.8C44.2 22.9657 44.3343 23.1 44.5 23.1Z" fill="white"/>
<path opacity="0.4" d="M30.4 38H30.8C30.9 38 31 38.1 31 38.2V50.1C31 50.2 30.9 50.3 30.8 50.3H30.4C30.3 50.3 30.2 50.2 30.2 50.1V38.2C30.3 38.1 30.3 38 30.4 38Z" fill="url(#paint5_linear_1_2630)"/>
<path opacity="0.4" d="M69.2 33.9H69.6C69.7 33.9 69.8 34 69.8 34.1V46C69.8 46.1 69.7 46.2 69.6 46.2H69.2C69.1 46.2 69 46.1 69 46V34.1C69 34 69.1 33.9 69.2 33.9Z" fill="url(#paint6_linear_1_2630)"/>
<path opacity="0.4" d="M42.1 41.9H42.5C42.6 41.9 42.7 42 42.7 42.1V54C42.7 54.1 42.6 54.2 42.5 54.2H42.1C42 54.2 41.9 54.1 41.9 54V42.1C41.9 42 42 41.9 42.1 41.9Z" fill="url(#paint7_linear_1_2630)"/>
<path opacity="0.4" d="M42.1 25.8H42.5C42.6 25.8 42.7 25.9 42.7 26V37.9C42.7 38 42.6 38.1 42.5 38.1H42.1C42 38.1 41.9 38 41.9 37.9V26C41.9 25.9 42 25.8 42.1 25.8Z" fill="url(#paint8_linear_1_2630)"/>
<path d="M8.29999 19.9C8.29999 20.7 8.59999 21.3 8.99999 21.5L10.1 22.1C10.1 22.1 21.1 13.9 21.1 12.5C21.1 12.5 21.1 12 21 11.7C21.2 11.6 21.5 11.5 21.5 11.5C21.3 11.4 20.7 11 20.4 10.9C20 10.8 19.3 11 19.1 11.1C19.1 10.8 19 10.5 18.9 10.3L19.4 10.2L18.4 9.59999C18 9.39999 17.5 9.39999 17 9.69999C16.7 9.89999 16.5 10.1 16.3 10.3C16.3 10.3 15.8 9.99998 15.5 9.79998C15.2 9.59998 14.9 9.59999 14.6 9.59999C14.5 9.59999 14.4 9.59999 14.3 9.59999C14.2 9.59999 14.2 9.59999 14.1 9.59999C13.8 9.69999 13.5 9.8 13.2 10C12 10.7 10.9 12.1 10.3 13.8C9.89999 14.8 9.59999 16.1 9.69999 16.8C8.49999 18 8.29999 18.8 8.29999 19.9Z" fill="url(#paint9_linear_1_2630)"/>
<path d="M9.39999 20.6C9.39999 22 10.3 22.7 11.4 22.1C11.4 22.1 11.5 22.1 11.5 22L20.2 16.9C20.2 16.9 20.3 16.9 20.3 16.8C21.4 16.2 22.2 14.5 22.2 13.1C22.2 11.7 21.3 11 20.2 11.6C20.2 11.6 20.2 11.6 20.1 11.6C20 10.1 19.1 9.5 17.9 10.2C17.6 10.4 17.3 10.7 17 11C16.4 10.1 15.3 9.89999 14.1 10.6C12.2 11.7 10.6 14.7 10.7 17.3C9.99999 18.2 9.39999 19.5 9.39999 20.6Z" fill="#F3F8FE"/>
<path d="M20.3 16.8C21.4 16.2 22.2 14.5 22.2 13.1C22.2 11.7 21.3 11 20.2 11.6C20.2 11.6 20.2 11.6 20.1 11.6C20 10.1 19.1 9.5 17.9 10.2C17.6 10.4 17.3 10.7 17 11C16.4 10.1 15.3 9.89999 14.1 10.6L14 10.7L18.6 17.8L20.1 16.9C20.2 16.9 20.2 16.9 20.3 16.8Z" fill="url(#paint10_linear_1_2630)"/>
<path d="M90.5 23.8C90.5 24.3 90.3 24.6 90.1 24.7L89.5 25.1C89.5 25.1 83 20.3 83 19.4C83 19.4 83 19.1 83.1 18.9C83 18.9 82.8 18.8 82.8 18.8C82.9 18.7 83.3 18.5 83.4 18.4C83.6 18.3 84.1 18.4 84.2 18.5C84.2 18.3 84.2 18.2 84.3 18L84 17.9L84.6 17.5C84.8 17.4 85.1 17.4 85.5 17.6C85.7 17.7 85.8 17.8 85.9 18C85.9 18 86.2 17.8 86.4 17.7C86.6 17.6 86.8 17.6 87 17.6C87.1 17.6 87.1 17.6 87.2 17.6H87.3C87.5 17.6 87.7 17.7 87.8 17.8C88.5 18.2 89.2 19.1 89.5 20C89.7 20.6 89.9 21.3 89.8 21.8C90.4 22.7 90.5 23.1 90.5 23.8Z" fill="url(#paint11_linear_1_2630)"/>
<path d="M89.8 24.2C89.8 25 89.3 25.4 88.6 25.1C88.6 25.1 88.6 25.1 88.5 25.1L83.4 22.1C83.4 22.1 83.4 22.1 83.3 22.1C82.7 21.7 82.2 20.7 82.2 19.9C82.2 19.1 82.7 18.7 83.4 19C83.4 18.1 84 17.7 84.7 18.1C84.9 18.2 85.1 18.4 85.2 18.5C85.6 18 86.2 17.8 86.9 18.3C88 19 89 20.8 88.9 22.3C89.5 22.8 89.8 23.6 89.8 24.2Z" fill="#F3F8FE"/>
<path d="M83.4 22C82.8 21.6 82.3 20.6 82.3 19.8C82.3 19 82.8 18.6 83.5 18.9C83.5 18 84.1 17.6 84.8 18C85 18.1 85.2 18.3 85.3 18.4C85.7 17.9 86.3 17.7 87 18.2C87 18.2 87 18.2 87.1 18.3L84.4 22.5L83.4 22Z" fill="url(#paint12_linear_1_2630)"/>
<path d="M15.5 67.5V68.3C15.5 68.5 15.4 68.6 15.2 68.8C14.8 69.1 14.1 69.1 13.6 68.8C13.4 68.7 13.3 68.5 13.3 68.3V67.5H15.5Z" fill="url(#paint13_linear_1_2630)"/>
<path d="M14.4018 68.1006C15.0093 68.0989 15.5011 67.8289 15.5001 67.4975C15.4992 67.1661 15.0059 66.8989 14.3984 66.9006C13.7909 66.9024 13.2992 67.1724 13.3001 67.5038C13.3011 67.8351 13.7943 68.1023 14.4018 68.1006Z" fill="#2185F8"/>
<path d="M14.4013 67.9006C14.7879 67.8995 15.1008 67.7196 15.1001 67.4986C15.0995 67.2777 14.7856 67.0995 14.399 67.1006C14.0124 67.1017 13.6995 67.2817 13.7001 67.5026C13.7008 67.7235 14.0147 67.9017 14.4013 67.9006Z" fill="#0CFFFC"/>
<path d="M18.7 69.4V70.2C18.7 70.4 18.6 70.5 18.4 70.7C18 71 17.3 71 16.8 70.7C16.6 70.6 16.5 70.4 16.5 70.2V69.4H18.7Z" fill="url(#paint14_linear_1_2630)"/>
<path d="M17.6019 70.0008C18.2094 69.9991 18.7011 69.7291 18.7002 69.3977C18.6993 69.0664 18.206 68.7991 17.5985 68.8008C16.991 68.8026 16.4993 69.0726 16.5002 69.404C16.5011 69.7353 16.9944 70.0026 17.6019 70.0008Z" fill="#2185F8"/>
<path d="M17.6013 69.8009C17.9879 69.7998 18.3008 69.6198 18.3002 69.3989C18.2996 69.178 17.9857 68.9998 17.5991 69.0009C17.2125 69.002 16.8996 69.1819 16.9002 69.4029C16.9008 69.6238 17.2147 69.802 17.6013 69.8009Z" fill="#FFE200"/>
<path d="M46.8 14.1C46.9 14.1 46.9 14.1 47 14.1C47.1 14.1 47.2 14.1 47.2 14.1H47.3C47.4 14.1 47.4 14.1 47.5 14.1L50.5 12.4C50.5 12.4 50.4 12.4 50.3 12.4H50.2C50.1 12.4 50.1 12.4 50 12.4C50 12.4 49.9 12.4 49.8 12.4C49.7 12.4 49.6 12.4 49.5 12.4C49.4 12.4 49.3 12.4 49.3 12.4C49.2 12.4 49.1 12.4 49 12.4C48.9 12.4 48.7 12.4 48.6 12.4C48.5 12.4 48.4 12.4 48.2 12.4C48.1 12.4 47.9 12.4 47.7 12.4C47.6 12.4 47.4 12.4 47.3 12.4C47.1 12.4 47 12.4 46.8 12.4C46.7 12.4 46.5 12.4 46.4 12.4C46.2 12.4 46 12.4 45.8 12.4C45.7 12.4 45.5 12.4 45.4 12.4C45 12.4 44.7 12.3 44.3 12.3C44.2 12.3 44.2 12.3 44.1 12.3C43.8 12.3 43.5 12.2 43.2 12.2C43.1 12.2 43 12.2 42.9 12.2C42.5 12.1 42.1 12.1 41.7 12C41.6 12 41.5 12 41.4 11.9C41.2 11.9 41 11.8 40.7 11.8C40.6 11.8 40.4 11.7 40.3 11.7C40.2 11.7 40.1 11.6 40 11.6C39.8 11.5 39.5 11.5 39.3 11.4C39.2 11.4 39.2 11.4 39.1 11.3C38.8 11.2 38.6 11.1 38.3 11H38.2C37.9 10.9 37.7 10.8 37.4 10.6L34.4 12.3C34.5 12.3 34.6 12.4 34.7 12.4C34.8 12.5 34.9 12.5 35 12.5C35.1 12.5 35.1 12.6 35.2 12.6H35.3H35.4C35.6 12.7 35.7 12.7 35.9 12.8C36 12.8 36 12.8 36.1 12.9C36.2 12.9 36.2 12.9 36.3 13C36.4 13 36.4 13 36.5 13.1C36.6 13.1 36.8 13.2 37 13.2C37.1 13.2 37.2 13.3 37.3 13.3H37.4C37.5 13.3 37.6 13.3 37.7 13.4C37.9 13.5 38.1 13.5 38.4 13.5H38.5C38.6 13.5 38.6 13.5 38.7 13.5C39.1 13.6 39.5 13.6 39.9 13.7C40 13.7 40 13.7 40.1 13.7H40.2C40.5 13.7 40.8 13.8 41.1 13.8C41.2 13.8 41.2 13.8 41.3 13.8C41.7 13.8 42.1 13.9 42.4 13.9C42.4 13.9 42.4 13.9 42.5 13.9C42.6 13.9 42.8 13.9 42.9 13.9C43.1 13.9 43.3 13.9 43.5 13.9C43.6 13.9 43.8 13.9 43.9 13.9C44.1 13.9 44.3 13.9 44.4 13.9C44.5 13.9 44.7 13.9 44.8 13.9C45 13.9 45.1 13.9 45.3 13.9C45.4 13.9 45.5 13.9 45.7 13.9C45.8 13.9 46 13.9 46.1 13.9H46.2C46.3 13.9 46.4 13.9 46.5 13.9C46.6 13.9 46.7 13.9 46.7 13.9C46.6 14.1 46.7 14.1 46.8 14.1Z" fill="url(#paint15_linear_1_2630)"/>
<path d="M47.5 14.2C48 14.7 56.6 24.9 60.8 27.5C61.1 29.8 60.8 41.6 57.5 45.5C55.1 47.9 49.9 47.3 47.5 47C47.4 47 47.4 47 47.3 46.9C47.2 46.8 47.1 46.7 47.1 46.7C45.3 44.9 39.2 38.4 37.3 33.8C34.3 27 33.8 14 34.2 12.1C38.4 14.4 46.9 14 47.3 14L47.5 14.2Z" fill="url(#paint16_linear_1_2630)"/>
<path d="M63.5 25.5C63.3 25.4 63.2 25.3 63.1 25.2C63.1 25.2 63 25.2 63 25.1C63 25.1 63 25.1 62.9 25.1C62.8 25 62.6 24.9 62.5 24.8L62.4 24.7C62.2 24.5 62 24.4 61.8 24.2L61.7 24.1C61.3 23.8 61 23.5 60.6 23.1C60.3 22.8 60 22.6 59.8 22.3L59.7 22.2C59.4 21.9 59.2 21.7 58.9 21.4L58.8 21.3C58.2 20.7 57.6 20.1 57 19.5C56.4 18.9 55.8 18.3 55.3 17.7L55.2 17.6C54.9 17.3 54.7 17 54.4 16.7L54.3 16.6C54 16.3 53.8 16 53.6 15.8C53.4 15.5 53.1 15.3 52.9 15L52.8 14.9C52.6 14.7 52.4 14.4 52.2 14.2L52.1 14.1C51.9 13.9 51.8 13.7 51.6 13.5C51.6 13.5 51.6 13.4 51.5 13.4C51.4 13.2 51.2 13.1 51.1 13L51 12.9C50.9 12.8 50.8 12.7 50.8 12.6C50.7 12.5 50.7 12.5 50.7 12.4L50.5 12.3L47.5 14L47.7 14.1C47.7 14.1 47.8 14.2 47.8 14.3C47.9 14.4 47.9 14.5 48 14.6C48 14.6 48 14.7 48.1 14.7C48.2 14.8 48.3 15 48.5 15.1C48.5 15.1 48.5 15.2 48.6 15.2C48.7 15.4 48.9 15.6 49.1 15.8L49.2 15.9C49.4 16.1 49.6 16.3 49.8 16.6L49.9 16.7C50.1 16.9 50.4 17.2 50.6 17.5C50.8 17.8 51.1 18 51.3 18.3L51.4 18.4C51.7 18.7 51.9 19 52.2 19.3L52.3 19.4C52.9 20 53.4 20.6 54 21.2C54.6 21.8 55.2 22.4 55.8 23C55.8 23 55.8 23 55.9 23.1C56.2 23.4 56.4 23.6 56.7 23.9L56.8 24C57.1 24.3 57.4 24.5 57.6 24.8C58 25.1 58.3 25.5 58.7 25.8C58.7 25.8 58.8 25.8 58.8 25.9C59 26.1 59.2 26.2 59.4 26.4C59.4 26.4 59.5 26.4 59.5 26.5C59.6 26.6 59.8 26.7 59.9 26.8C59.9 26.8 59.9 26.8 60 26.8C60 26.8 60.1 26.8 60.1 26.9C60.2 27 60.3 27.1 60.4 27.1C60.4 27.1 60.5 27.1 60.5 27.2C60.6 27.3 60.7 27.3 60.7 27.3C60.7 27.3 60.8 27.3 60.8 27.4L63.8 25.7C63.7 25.7 63.6 25.6 63.5 25.5Z" fill="url(#paint17_linear_1_2630)"/>
<path d="M64 29C64 28.7 64 28.5 64 28.3C64 28.3 64 28.3 64 28.2V28.1C64 28 64 27.9 64 27.7C64 27.6 64 27.6 64 27.5C64 27.4 64 27.3 64 27.1V27C64 26.8 64 26.6 64 26.4C64 26.4 64 26.4 64 26.3C64 26.3 64 26.3 64 26.2C64 26.1 64 26 64 26V25.9C64 25.9 64 25.9 64 25.8V25.7V25.6V25.5L61 27.2C61 27.3 61 27.3 61 27.4V27.5V27.6C61 27.7 61 27.7 61 27.8V27.9C61 28.1 61 28.3 61 28.5V28.6C61 28.7 61 28.8 61 28.9C61 29 61 29 61 29.1C61 29.2 61 29.3 61 29.5C61 29.6 61 29.6 61 29.7C61 29.9 61 30.2 61 30.4V30.5C61 30.7 61 31 61 31.2C61 31.3 61 31.3 61 31.4C61 31.7 61 32 61 32.3C61 32.4 61 32.4 61 32.5C61 32.8 61 33.1 60.9 33.5C60.9 33.5 60.9 33.5 60.9 33.6C60.8 34.3 60.8 35 60.7 35.7V35.8C60.6 36.4 60.5 37.1 60.4 37.7V37.8C60.3 38.4 60.2 38.9 60.1 39.4V39.5C60 40 59.9 40.5 59.7 40.9C59.6 41.3 59.4 41.7 59.3 42.1V42.2C59.2 42.6 59 42.9 58.9 43.2V43.3C58.7 43.6 58.6 43.9 58.4 44.2C58.4 44.2 58.4 44.3 58.3 44.3C58.1 44.5 58 44.8 57.8 45C57.5 45.3 57.2 45.6 56.8 45.8L59.8 44.1C60.2 43.9 60.5 43.6 60.8 43.3C61 43.1 61.1 42.9 61.3 42.6C61.3 42.6 61.3 42.6 61.3 42.5C61.5 42.2 61.6 41.9 61.8 41.6C62 41.3 62.1 40.9 62.2 40.6C62.2 40.6 62.2 40.6 62.2 40.5C62.3 40.1 62.5 39.7 62.6 39.3C62.7 38.8 62.9 38.3 63 37.9C63 37.9 63 37.9 63 37.8C63.1 37.3 63.2 36.7 63.3 36.2C63.3 36.2 63.3 36.2 63.3 36.1C63.4 35.5 63.5 34.8 63.6 34.2C63.6 34.2 63.6 34.2 63.6 34.1C63.7 33.4 63.8 32.7 63.8 32C63.8 31.7 63.8 31.3 63.9 31C63.9 30.9 63.9 30.9 63.9 30.8C63.9 30.5 63.9 30.2 63.9 29.9C63.9 29.9 63.9 29.9 63.9 29.8V29.7C63.9 29.5 63.9 29.2 63.9 29C64 29.1 64 29.1 64 29Z" fill="url(#paint18_linear_1_2630)"/>
<g opacity="0.5">
<path d="M47.5 15.8C47.9 16.3 55.6 25.4 59.4 27.8C59.7 29.9 59.4 40.4 56.5 43.9C54.4 46.1 49.7 45.5 47.6 45.2C47.5 45.2 47.5 45.2 47.4 45.1C47.3 45 47.2 45 47.2 45C45.6 43.4 40.1 37.5 38.4 33.4C35.7 27.3 35.3 15.6 35.6 14C39.4 16 47 15.7 47.4 15.7L47.5 15.8Z" stroke="white" stroke-width="0.25" stroke-miterlimit="10"/>
</g>
<defs>
<linearGradient id="paint0_linear_1_2630" x1="3.18148" y1="78.0751" x2="96.8186" y2="78.0751" gradientUnits="userSpaceOnUse">
<stop stop-color="#92A6F1"/>
<stop offset="1" stop-color="white"/>
</linearGradient>
<linearGradient id="paint1_linear_1_2630" x1="18.7701" y1="66.2814" x2="81.23" y2="66.2814" gradientUnits="userSpaceOnUse">
<stop offset="0.389" stop-color="#103DB5"/>
<stop offset="0.5932" stop-color="#6BABFD"/>
</linearGradient>
<linearGradient id="paint2_linear_1_2630" x1="28.1518" y1="51.1536" x2="71.8482" y2="51.1536" gradientUnits="userSpaceOnUse">
<stop offset="0.389" stop-color="#103DB5"/>
<stop offset="0.5932" stop-color="#6BABFD"/>
</linearGradient>
<linearGradient id="paint3_linear_1_2630" x1="80.9903" y1="53.9667" x2="19.0099" y2="48.3404" gradientUnits="userSpaceOnUse">
<stop stop-color="white"/>
<stop offset="1" stop-color="#4D9DF9"/>
</linearGradient>
<linearGradient id="paint4_linear_1_2630" x1="50" y1="63.7382" x2="50" y2="7.0566" gradientUnits="userSpaceOnUse">
<stop stop-color="#0CFFFC" stop-opacity="0.6"/>
<stop offset="1" stop-color="white" stop-opacity="0"/>
</linearGradient>
<linearGradient id="paint5_linear_1_2630" x1="30.6254" y1="39.3221" x2="30.6254" y2="49.2506" gradientUnits="userSpaceOnUse">
<stop offset="0.2578" stop-color="white"/>
<stop offset="1" stop-color="white" stop-opacity="0"/>
</linearGradient>
<linearGradient id="paint6_linear_1_2630" x1="69.3745" y1="35.222" x2="69.3745" y2="45.1583" gradientUnits="userSpaceOnUse">
<stop offset="0.2578" stop-color="white"/>
<stop offset="1" stop-color="white" stop-opacity="0"/>
</linearGradient>
<linearGradient id="paint7_linear_1_2630" x1="42.2436" y1="43.1897" x2="42.2436" y2="53.1182" gradientUnits="userSpaceOnUse">
<stop offset="0.2578" stop-color="white"/>
<stop offset="1" stop-color="white" stop-opacity="0"/>
</linearGradient>
<linearGradient id="paint8_linear_1_2630" x1="42.2436" y1="27.0839" x2="42.2436" y2="37.0202" gradientUnits="userSpaceOnUse">
<stop offset="0.2578" stop-color="white"/>
<stop offset="1" stop-color="white" stop-opacity="0"/>
</linearGradient>
<linearGradient id="paint9_linear_1_2630" x1="5.99189" y1="20.3245" x2="17.0507" y2="11.8539" gradientUnits="userSpaceOnUse">
<stop stop-color="#97B5E1"/>
<stop offset="1" stop-color="#ECF1FA"/>
</linearGradient>
<linearGradient id="paint10_linear_1_2630" x1="22.8118" y1="16.129" x2="12.4" y2="10.2349" gradientUnits="userSpaceOnUse">
<stop stop-color="white"/>
<stop offset="1" stop-color="#C9D9F4"/>
</linearGradient>
<linearGradient id="paint11_linear_1_2630" x1="91.8584" y1="24.0536" x2="85.32" y2="19.0454" gradientUnits="userSpaceOnUse">
<stop stop-color="#97B5E1"/>
<stop offset="1" stop-color="#ECF1FA"/>
</linearGradient>
<linearGradient id="paint12_linear_1_2630" x1="81.9137" y1="21.573" x2="88.0696" y2="18.0881" gradientUnits="userSpaceOnUse">
<stop stop-color="white"/>
<stop offset="1" stop-color="#C9D9F4"/>
</linearGradient>
<linearGradient id="paint13_linear_1_2630" x1="15.4757" y1="68.1902" x2="13.256" y2="68.1902" gradientUnits="userSpaceOnUse">
<stop stop-color="#103DB5"/>
<stop offset="0.6426" stop-color="#6BABFD"/>
</linearGradient>
<linearGradient id="paint14_linear_1_2630" x1="18.7419" y1="70.092" x2="16.5221" y2="70.092" gradientUnits="userSpaceOnUse">
<stop stop-color="#103DB5"/>
<stop offset="0.6426" stop-color="#6BABFD"/>
</linearGradient>
<linearGradient id="paint15_linear_1_2630" x1="41.9376" y1="9.55838" x2="42.4982" y2="13.3222" gradientUnits="userSpaceOnUse">
<stop stop-color="#FF8000"/>
<stop offset="1" stop-color="#FFE46B"/>
</linearGradient>
<linearGradient id="paint16_linear_1_2630" x1="35.7227" y1="20.8111" x2="57.6647" y2="38.9092" gradientUnits="userSpaceOnUse">
<stop stop-color="#FF8000"/>
<stop offset="1" stop-color="#FFD000"/>
</linearGradient>
<linearGradient id="paint17_linear_1_2630" x1="53.5873" y1="12.3812" x2="56.3501" y2="22.5915" gradientUnits="userSpaceOnUse">
<stop stop-color="#FF8000"/>
<stop offset="1" stop-color="#FFEC96"/>
</linearGradient>
<linearGradient id="paint18_linear_1_2630" x1="59.009" y1="35.5068" x2="62.8528" y2="37.0283" gradientUnits="userSpaceOnUse">
<stop stop-color="#FF8000"/>
<stop offset="1" stop-color="#FFE25C"/>
</linearGradient>
</defs>
</svg>
